<svg width="40" height="40" viewBox="0 0 40 40" fill="none" xmlns="http://www.w3.org/2000/svg">
<circle cx="20" cy="20" r="20" fill="#D9D9D9"/>
<path d="M20 23L23 20M23 20L20 17M23 20H12M12 15.248V15.2C12 14.08 12 13.52 12.218 13.092C12.41 12.715 12.715 12.41 13.092 12.218C13.52 12 14.08 12 15.2 12H24.8C25.92 12 26.48 12 26.907 12.218C27.284 12.41 27.59 12.715 27.782 13.092C28 13.519 28 14.079 28 15.197V24.804C28 25.922 28 26.481 27.782 26.908C27.59 27.2845 27.2837 27.5904 26.907 27.782C26.48 28 25.921 28 24.803 28H15.197C14.079 28 13.519 28 13.092 27.782C12.7157 27.5903 12.4097 27.2843 12.218 26.908C12 26.48 12 25.92 12 24.8V24.75" stroke="#09021C" stroke-width="2" stroke-linecap="round" stroke-linejoin="round"/>
</svg>
