<svg width="40" height="40" viewBox="0 0 40 40" fill="none" xmlns="http://www.w3.org/2000/svg">
<circle cx="20" cy="20" r="20" fill="#373737"/>
<path d="M19.4997 19.5002C17.8955 19.5002 16.5222 18.929 15.3799 17.7866C14.2375 16.6443 13.6663 15.271 13.6663 13.6668C13.6663 12.0627 14.2375 10.6894 15.3799 9.54704C16.5222 8.40468 17.8955 7.8335 19.4997 7.8335C21.1038 7.8335 22.4771 8.40468 23.6195 9.54704C24.7618 10.6894 25.333 12.0627 25.333 13.6668C25.333 15.271 24.7618 16.6443 23.6195 17.7866C22.4771 18.929 21.1038 19.5002 19.4997 19.5002ZM7.83301 28.2502V27.0835C7.83301 26.2571 8.04592 25.4978 8.47176 24.8056C8.89759 24.1134 9.46245 23.5845 10.1663 23.2189C11.6733 22.4654 13.2045 21.9006 14.7601 21.5243C16.3156 21.1481 17.8955 20.9595 19.4997 20.9585C21.1038 20.9575 22.6837 21.1461 24.2393 21.5243C25.7948 21.9025 27.3261 22.4674 28.833 23.2189C29.5379 23.5835 30.1032 24.1124 30.529 24.8056C30.9549 25.4988 31.1673 26.2581 31.1663 27.0835V28.2502C31.1663 29.0522 30.881 29.7391 30.3103 30.3108C29.7396 30.8825 29.0527 31.1678 28.2497 31.1668H10.7497C9.94759 31.1668 9.2612 30.8815 8.69051 30.3108C8.11981 29.7401 7.83398 29.0532 7.83301 28.2502Z" fill="#6C6C6C"/>
</svg>
