<svg width="20" height="20" viewBox="0 0 20 20" fill="none" xmlns="http://www.w3.org/2000/svg">
<path fill-rule="evenodd" clip-rule="evenodd" d="M10 3.50004C8.77887 3.50031 7.58252 3.84456 6.548 4.49334C5.51348 5.14213 4.68263 6.06921 4.15066 7.16837C3.61869 8.26754 3.4071 9.49433 3.54014 10.7082C3.67317 11.922 4.14546 13.0739 4.90288 14.0317C5.66029 14.9896 6.67221 15.7147 7.8227 16.124C8.97319 16.5333 10.2157 16.6103 11.4079 16.346C12.6001 16.0818 13.6938 15.4871 14.5636 14.63C15.4334 13.773 16.0442 12.6882 16.326 11.5H11C10.6022 11.5 10.2206 11.342 9.93934 11.0607C9.65804 10.7794 9.5 10.3979 9.5 10C9.5 9.60221 9.65804 9.22068 9.93934 8.93938C10.2206 8.65807 10.6022 8.50004 11 8.50004H18C18.3978 8.50004 18.7794 8.65807 19.0607 8.93938C19.342 9.22068 19.5 9.60221 19.5 10C19.5 12.1968 18.7387 14.3257 17.3457 16.0242C15.9526 17.7228 14.014 18.8862 11.8598 19.3162C9.70551 19.7462 7.4688 19.4164 5.53037 18.3829C3.59194 17.3493 2.0716 15.6759 1.22815 13.6476C0.384704 11.6192 0.270273 9.3612 0.904341 7.25794C1.53841 5.15469 2.88179 3.33618 4.7058 2.11196C6.52981 0.887745 8.72171 0.33349 10.9084 0.543545C13.0951 0.753599 15.1414 1.71498 16.699 3.26404C16.8387 3.40298 16.9496 3.56806 17.0254 3.74987C17.1013 3.93168 17.1406 4.12665 17.1411 4.32365C17.1416 4.52065 17.1033 4.71582 17.0284 4.89802C16.9535 5.08022 16.8434 5.24588 16.7045 5.38554C16.5656 5.5252 16.4005 5.63612 16.2187 5.71198C16.0369 5.78785 15.8419 5.82715 15.6449 5.82766C15.247 5.82869 14.8651 5.67164 14.583 5.39104C13.3664 4.17812 11.7179 3.49794 10 3.50004Z" fill="white"/>
</svg>
