<svg width="25" height="25" viewBox="0 0 25 25" fill="none" xmlns="http://www.w3.org/2000/svg">
<path d="M15.8087 2.6015C15.8422 2.73991 15.9079 2.86845 16.0005 2.97667C16.0931 3.08489 16.2099 3.16974 16.3414 3.2243C16.473 3.27887 16.6156 3.30162 16.7576 3.29071C16.8996 3.27979 17.037 3.23552 17.1586 3.16148C20.2073 1.30528 23.696 4.79269 21.8398 7.84137C21.7657 7.96294 21.7214 8.10027 21.7104 8.24219C21.6994 8.38412 21.7221 8.52663 21.7765 8.65816C21.8309 8.78968 21.9156 8.90652 22.0237 8.99916C22.1318 9.0918 22.2602 9.15764 22.3985 9.19133C25.8672 10.0326 25.8672 14.9662 22.3985 15.8087C22.2601 15.8422 22.1315 15.9079 22.0233 16.0005C21.9151 16.0931 21.8303 16.2099 21.7757 16.3414C21.7211 16.473 21.6984 16.6156 21.7093 16.7576C21.7202 16.8996 21.7645 17.037 21.8385 17.1586C23.6947 20.2073 20.2073 23.696 17.1586 21.8398C17.0371 21.7657 16.8997 21.7214 16.7578 21.7104C16.6159 21.6994 16.4734 21.7221 16.3418 21.7765C16.2103 21.8309 16.0935 21.9156 16.0008 22.0237C15.9082 22.1318 15.8424 22.2602 15.8087 22.3985C14.9674 25.8672 10.0338 25.8672 9.19133 22.3985C9.1578 22.2601 9.09207 22.1315 8.99949 22.0233C8.90691 21.9151 8.7901 21.8303 8.65855 21.7757C8.52701 21.7211 8.38444 21.6984 8.24244 21.7093C8.10044 21.7202 7.96303 21.7645 7.84137 21.8385C4.79269 23.6947 1.30403 20.2073 3.16023 17.1586C3.23427 17.0371 3.27859 16.8997 3.28958 16.7578C3.30057 16.6159 3.27793 16.4734 3.22349 16.3418C3.16905 16.2103 3.08435 16.0935 2.97628 16.0008C2.86821 15.9082 2.7398 15.8424 2.6015 15.8087C-0.867166 14.9674 -0.867166 10.0338 2.6015 9.19133C2.73991 9.1578 2.86845 9.09207 2.97667 8.99949C3.08489 8.90691 3.16974 8.7901 3.2243 8.65855C3.27887 8.52701 3.30162 8.38444 3.29071 8.24244C3.27979 8.10044 3.23552 7.96303 3.16148 7.84137C1.30528 4.79269 4.79269 1.30403 7.84137 3.16023C7.96282 3.23483 8.10021 3.2796 8.2423 3.29088C8.38439 3.30215 8.52713 3.27961 8.65882 3.2251C8.79052 3.17059 8.90744 3.08567 9 2.97727C9.09255 2.86888 9.15812 2.74011 9.19133 2.6015C10.0326 -0.867166 14.9662 -0.867166 15.8087 2.6015ZM12.5 8.75009C11.5055 8.75009 10.5517 9.14517 9.84842 9.84842C9.14517 10.5517 8.75009 11.5055 8.75009 12.5C8.75009 13.4945 9.14517 14.4483 9.84842 15.1516C10.5517 15.8548 11.5055 16.2499 12.5 16.2499C13.4945 16.2499 14.4483 15.8548 15.1516 15.1516C15.8548 14.4483 16.2499 13.4945 16.2499 12.5C16.2499 11.5055 15.8548 10.5517 15.1516 9.84842C14.4483 9.14517 13.4945 8.75009 12.5 8.75009Z" fill="white"/>
</svg>
