<svg width="13" height="18" viewBox="0 0 13 18" fill="none" xmlns="http://www.w3.org/2000/svg">
<path fill-rule="evenodd" clip-rule="evenodd" d="M6.69763 17.1168L6.68828 17.1184L6.63295 17.1466L6.61736 17.1498L6.60645 17.1466L6.55112 17.1176C6.54281 17.1154 6.53657 17.117 6.53242 17.1224L6.5293 17.1305L6.51605 17.4756L6.51995 17.4917L6.52774 17.5022L6.60879 17.5619L6.62048 17.5651L6.62983 17.5619L6.71088 17.5022L6.72023 17.4893L6.72335 17.4756L6.7101 17.1313C6.70802 17.1227 6.70387 17.1178 6.69763 17.1168ZM6.90337 17.0256L6.89246 17.0272L6.74907 17.1022L6.74127 17.1103L6.73893 17.1192L6.75296 17.4659L6.75686 17.4756L6.76309 17.4821L6.91974 17.5563C6.92961 17.5589 6.93714 17.5568 6.94234 17.5498L6.94545 17.5385L6.91896 17.0434C6.91636 17.0332 6.91116 17.0272 6.90337 17.0256ZM6.34616 17.0272C6.34272 17.0251 6.33862 17.0244 6.3347 17.0253C6.33078 17.0262 6.32735 17.0286 6.32512 17.0321L6.32044 17.0434L6.29395 17.5385C6.29446 17.5482 6.29888 17.5546 6.30719 17.5579L6.31888 17.5563L6.47553 17.4813L6.48332 17.4748L6.48566 17.4659L6.49968 17.1192L6.49735 17.1095L6.48955 17.1014L6.34616 17.0272Z" fill="#6A1EA4"/>
<path fill-rule="evenodd" clip-rule="evenodd" d="M4.6759 0C4.05583 0 3.46117 0.254497 3.02272 0.707506C2.58427 1.16051 2.33795 1.77492 2.33795 2.41558C1.71789 2.41558 1.12322 2.67007 0.684769 3.12308C0.246319 3.57609 0 4.1905 0 4.83115V15.3131C0 16.3003 1.08325 16.8704 1.85633 16.2898L5.06555 13.8783L8.27478 16.2898C9.04708 16.8704 10.1311 16.3003 10.1311 15.3131V13.5127L10.6127 13.8751C11.385 14.4548 12.4691 13.8847 12.4691 12.8976V2.41558C12.4691 1.77492 12.2227 1.16051 11.7843 0.707506C11.3458 0.254497 10.7512 0 10.1311 0H4.6759ZM10.1311 11.5215L10.9104 12.1069V2.41558C10.9104 2.20202 10.8283 1.99722 10.6822 1.84622C10.536 1.69522 10.3378 1.61038 10.1311 1.61038H4.6759C4.46921 1.61038 4.27099 1.69522 4.12484 1.84622C3.97869 1.99722 3.89658 2.20202 3.89658 2.41558H7.79316C8.41322 2.41558 9.00789 2.67007 9.44634 3.12308C9.88479 3.57609 10.1311 4.1905 10.1311 4.83115V11.5215Z" fill="#6A1EA4"/>
</svg>
