<svg width="40" height="40" viewBox="0 0 40 40" fill="none" xmlns="http://www.w3.org/2000/svg">
<circle cx="20" cy="20" r="20" fill="#D9D9D9"/>
<path d="M23.3091 10.1016C23.3426 10.24 23.4083 10.3685 23.5009 10.4767C23.5935 10.585 23.7103 10.6698 23.8419 10.7244C23.9734 10.779 24.116 10.8017 24.258 10.7908C24.4 10.7799 24.5374 10.7356 24.6591 10.6616C27.7078 8.80531 31.1966 12.2928 29.3403 15.3416C29.2663 15.4631 29.222 15.6005 29.211 15.7424C29.2 15.8843 29.2226 16.0268 29.2771 16.1584C29.3315 16.2899 29.4162 16.4067 29.5243 16.4994C29.6323 16.592 29.7608 16.6579 29.8991 16.6916C33.3678 17.5328 33.3678 22.4666 29.8991 23.3091C29.7606 23.3426 29.6321 23.4083 29.5239 23.5009C29.4157 23.5935 29.3308 23.7103 29.2762 23.8419C29.2217 23.9734 29.1989 24.116 29.2098 24.258C29.2208 24.4 29.265 24.5374 29.3391 24.6591C31.1953 27.7078 27.7078 31.1966 24.6591 29.3403C24.5375 29.2663 24.4002 29.222 24.2582 29.211C24.1163 29.2 23.9738 29.2226 23.8423 29.2771C23.7107 29.3315 23.5939 29.4162 23.5012 29.5243C23.4086 29.6323 23.3428 29.7608 23.3091 29.8991C22.4678 33.3678 17.5341 33.3678 16.6916 29.8991C16.658 29.7606 16.5923 29.6321 16.4997 29.5239C16.4071 29.4157 16.2903 29.3308 16.1588 29.2762C16.0272 29.2217 15.8846 29.1989 15.7426 29.2098C15.6006 29.2208 15.4632 29.265 15.3416 29.3391C12.2928 31.1953 8.80406 27.7078 10.6603 24.6591C10.7344 24.5375 10.7787 24.4002 10.7897 24.2582C10.8007 24.1163 10.778 23.9738 10.7236 23.8423C10.6691 23.7107 10.5844 23.5939 10.4764 23.5012C10.3683 23.4086 10.2399 23.3428 10.1016 23.3091C6.63281 22.4678 6.63281 17.5341 10.1016 16.6916C10.24 16.658 10.3685 16.5923 10.4767 16.4997C10.585 16.4071 10.6698 16.2903 10.7244 16.1588C10.779 16.0272 10.8017 15.8846 10.7908 15.7426C10.7799 15.6006 10.7356 15.4632 10.6616 15.3416C8.80531 12.2928 12.2928 8.80406 15.3416 10.6603C15.463 10.7349 15.6004 10.7797 15.7425 10.791C15.8846 10.8022 16.0273 10.7797 16.159 10.7252C16.2907 10.6707 16.4077 10.5857 16.5002 10.4773C16.5928 10.369 16.6584 10.2402 16.6916 10.1016C17.5328 6.63281 22.4666 6.63281 23.3091 10.1016ZM20.0003 16.2503C19.0058 16.2503 18.0519 16.6454 17.3487 17.3487C16.6454 18.0519 16.2503 19.0058 16.2503 20.0003C16.2503 20.9949 16.6454 21.9487 17.3487 22.652C18.0519 23.3552 19.0058 23.7503 20.0003 23.7503C20.9949 23.7503 21.9487 23.3552 22.652 22.652C23.3552 21.9487 23.7503 20.9949 23.7503 20.0003C23.7503 19.0058 23.3552 18.0519 22.652 17.3487C21.9487 16.6454 20.9949 16.2503 20.0003 16.2503Z" fill="#09021C"/>
</svg>
