<svg width="24" height="22" viewBox="0 0 24 22" fill="none" xmlns="http://www.w3.org/2000/svg">
<g filter="url(#filter0_d_936_9)">
<path d="M12.005 0C6.75502 0 2.44902 4.05 2.04102 9.198L7.40102 11.412C7.86985 11.0904 8.42548 10.9191 8.99402 10.921C9.04735 10.9217 9.09968 10.9233 9.15102 10.926L11.535 7.474V7.425C11.535 5.345 13.225 3.655 15.305 3.655C16.3049 3.65659 17.2634 4.05471 17.9701 4.76202C18.6769 5.46934 19.0742 6.4281 19.075 7.428C19.075 9.508 17.384 11.198 15.305 11.198H15.218L11.821 13.624L11.824 13.757C11.8245 14.1283 11.7519 14.496 11.6102 14.8392C11.4686 15.1824 11.2607 15.4943 10.9984 15.7572C10.7362 16.02 10.4247 16.2285 10.0818 16.3709C9.73889 16.5133 9.3713 16.5867 9.00002 16.587C8.34678 16.5845 7.71433 16.3571 7.20897 15.9432C6.70362 15.5292 6.35616 14.9539 6.22502 14.314L2.38702 12.725C3.57402 16.923 7.42802 20 12.006 20C17.528 20 22.004 15.523 22.004 10C22.004 4.477 17.527 0 12.005 0ZM7.08002 14.667C7.29802 15.119 7.67502 15.499 8.17502 15.708C8.56279 15.8684 8.98934 15.9104 9.40095 15.8288C9.81256 15.7472 10.1908 15.5456 10.4881 15.2494C10.7853 14.9532 10.9883 14.5757 11.0714 14.1644C11.1545 13.753 11.114 13.3263 10.955 12.938C10.7448 12.4276 10.3441 12.0192 9.8378 11.7993C9.33153 11.5793 8.7595 11.5653 8.24302 11.76L9.51202 12.286C9.89107 12.4484 10.1907 12.7538 10.3458 13.1359C10.5009 13.518 10.4989 13.9459 10.3403 14.3266C10.1816 14.7072 9.87917 15.0099 9.49863 15.1687C9.11808 15.3276 8.69021 15.3299 8.30802 15.175L7.08002 14.667ZM17.82 7.422C17.819 6.75593 17.5538 6.11745 17.0827 5.64656C16.6117 5.17567 15.9731 4.91079 15.307 4.91C14.8099 4.91 14.324 5.05741 13.9108 5.33359C13.4975 5.60976 13.1754 6.0023 12.9852 6.46155C12.795 6.9208 12.7453 7.42613 12.8424 7.91363C12.9394 8.40113 13.1789 8.8489 13.5304 9.20031C13.882 9.55172 14.3298 9.79098 14.8174 9.88784C15.3049 9.98469 15.8102 9.93478 16.2694 9.74442C16.7286 9.55407 17.121 9.23181 17.397 8.81842C17.673 8.40503 17.8202 7.91907 17.82 7.422ZM15.312 5.53C15.8126 5.53053 16.2925 5.72961 16.6464 6.08357C17.0004 6.43752 17.1995 6.91743 17.2 7.418C17.1995 7.91857 17.0004 8.39848 16.6464 8.75243C16.2925 9.10639 15.8126 9.30547 15.312 9.306C14.8113 9.306 14.3311 9.10709 13.977 8.75302C13.6229 8.39895 13.424 7.91873 13.424 7.418C13.424 6.91727 13.6229 6.43705 13.977 6.08298C14.3311 5.72891 14.8113 5.53 15.312 5.53Z" fill="white"/>
</g>
<defs>
<filter id="filter0_d_936_9" x="-1.95898" y="0" width="27.9629" height="28" filterUnits="userSpaceOnUse" color-interpolation-filters="sRGB">
<feFlood flood-opacity="0" result="BackgroundImageFix"/>
<feColorMatrix in="SourceAlpha" type="matrix" values="0 0 0 0 0 0 0 0 0 0 0 0 0 0 0 0 0 0 127 0" result="hardAlpha"/>
<feOffset dy="4"/>
<feGaussianBlur stdDeviation="2"/>
<feComposite in2="hardAlpha" operator="out"/>
<feColorMatrix type="matrix" values="0 0 0 0 0 0 0 0 0 0 0 0 0 0 0 0 0 0 0.25 0"/>
<feBlend mode="normal" in2="BackgroundImageFix" result="effect1_dropShadow_936_9"/>
<feBlend mode="normal" in="SourceGraphic" in2="effect1_dropShadow_936_9" result="shape"/>
</filter>
</defs>
</svg>
