<svg width="13" height="17" viewBox="0 0 13 17" fill="none" xmlns="http://www.w3.org/2000/svg">
<path fill-rule="evenodd" clip-rule="evenodd" d="M4.6759 0C4.05583 0 3.46117 0.254497 3.02272 0.707506C2.58427 1.16051 2.33795 1.77492 2.33795 2.41558C1.71789 2.41558 1.12322 2.67007 0.684769 3.12308C0.246319 3.57609 0 4.1905 0 4.83115V15.3131C0 16.3003 1.08325 16.8704 1.85633 16.2898L5.06555 13.8783L8.27478 16.2898C9.04708 16.8704 10.1311 16.3003 10.1311 15.3131V13.5127L10.6127 13.8751C11.385 14.4548 12.4691 13.8847 12.4691 12.8976V2.41558C12.4691 1.77492 12.2227 1.16051 11.7843 0.707506C11.3458 0.254497 10.7512 0 10.1311 0H4.6759ZM10.1311 11.5215L10.9104 12.1069V2.41558C10.9104 2.20202 10.8283 1.99722 10.6822 1.84622C10.536 1.69522 10.3378 1.61038 10.1311 1.61038H4.6759C4.46921 1.61038 4.27099 1.69522 4.12484 1.84622C3.97869 1.99722 3.89658 2.20202 3.89658 2.41558H7.79316C8.41322 2.41558 9.00789 2.67007 9.44634 3.12308C9.88479 3.57609 10.1311 4.1905 10.1311 4.83115V11.5215Z" fill="white"/>
</svg>
